<svg width="200" height="200" viewBox="0,0,200,200" version="1.1" xmlns="http://www.w3.org/2000/svg" xmlns:xlink="http://www.w3.org/1999/xlink"><g transform="translate(-140.45538,-80.45538)"><g data-paper-data="{&quot;isPaintingLayer&quot;:true}" fill-rule="nonzero" stroke="none" stroke-linecap="butt" stroke-linejoin="miter" stroke-miterlimit="10" stroke-dasharray="" stroke-dashoffset="0" style="mix-blend-mode: normal">
	<path d="M140.45538,279.54462v-200h200v200z" fill="#ffffff" stroke-width="0"/>
	<path d="M201.19231,143.91224c0,-21.42866 17.3733,-38.81103 38.80781,-38.81103c21.43159,0 38.8081,17.38237 38.8081,38.81103c0,21.4348 -17.37652,38.81103 -38.8081,38.81103c-21.43451,0 -38.80781,-17.37622 -38.80781,-38.81103z" fill="#4b4b4b" stroke-width="1"/>
	<path d="M240.00012,254.89879c-26.66016,0 -53.95843,-9.23245 -49.7009,-34.78581c1.73291,-10.37875 10.53293,-24.72508 16.83789,-31.4414c1.7057,-1.81747 4.66654,-1.06145 5.70664,-0.4175c7.91118,4.87778 17.19805,7.72364 27.15607,7.72364c9.95832,0 19.24519,-2.84586 27.15637,-7.72364c1.04039,-0.64395 4.00094,-1.39996 5.70635,0.4175c6.30554,6.71632 15.10556,21.06265 16.83818,31.4414c4.25782,25.55336 -23.04045,34.78581 -49.70061,34.78581z" fill="#4b4b4b" stroke-width="1"/></g></g>
</svg>